<svg width="66" height="66" viewBox="0 0 66 66" fill="none" xmlns="http://www.w3.org/2000/svg">
<path d="M38.321 0.182155C32.0485 3.31348 25.3335 7.0173 18.9569 10.1963H21.1648C21.7605 10.2031 22.3489 10.3274 22.8964 10.5621C23.4438 10.7969 23.9396 11.1374 24.3551 11.5641C24.7706 11.9908 25.0978 12.4954 25.3178 13.0488C25.5378 13.6023 25.6463 14.1937 25.6371 14.7892V18.2155C25.6377 19.2015 25.3264 20.1624 24.7479 20.9608C28.7864 18.879 31.7665 17.205 36.113 15.0364C41.6264 19.4429 48.259 25.2935 53.7551 30.2464V50.6304C53.7556 50.9911 53.685 51.3483 53.5472 51.6816C53.4094 52.015 53.2072 52.3178 52.9521 52.5729C52.697 52.8279 52.3941 53.0301 52.0607 53.1679C51.7273 53.3057 51.37 53.3763 51.0092 53.3757H25.16C18.4276 53.3757 12.8752 47.7636 12.7277 40.8851V4.54086C12.7363 3.95235 12.6287 3.36793 12.4111 2.82104C12.1936 2.27415 11.8702 1.77555 11.4596 1.35376C11.049 0.931979 10.5593 0.595302 10.0184 0.363004C9.4775 0.130707 8.89609 0.00735132 8.30746 0H4.4034C3.21759 0.019405 2.08794 0.508469 1.26245 1.35982C0.436953 2.21118 -0.0169144 3.35525 0.000482278 4.54086V41.4576C0.299794 54.9023 11.1574 65.875 24.3184 65.875H25.1513H60.3833C61.8398 65.875 63.2366 65.2965 64.2665 64.2668C65.2964 63.2371 65.875 61.8405 65.875 60.3843V24.7514C56.6961 16.6758 47.5086 8.24034 38.321 0.182155Z" fill="white"/>
</svg>
