<svg width="643" height="166" viewBox="0 0 643 166" fill="none" xmlns="http://www.w3.org/2000/svg">
<g clip-path="url(#clip0_12_53)">
<g clip-path="url(#clip1_12_53)">
<path d="M252.818 94.6923C252.551 98.45 251.242 101.929 249.207 104.809C245.771 109.664 240.242 112.839 234.062 112.839C223.879 112.839 215.481 104.234 215.256 93.6789H215.248V66.6821H246.205C249.891 66.6821 252.876 63.5661 252.876 59.7155V54.4884C252.876 50.6377 249.891 47.5217 246.205 47.5217H215.24V29.1889C215.24 25.3382 212.254 22.2222 208.568 22.2222H202.672C198.986 22.2222 196 25.3382 196 29.1889V94.5487H196.025C196.475 115.178 212.896 132 232.803 132C246.755 132 259.006 123.733 265.236 111.682C266.62 109.006 267.712 106.134 268.455 103.128C268.488 102.993 268.555 102.714 268.555 102.714C268.555 102.714 252.826 94.5656 252.818 94.6923Z" fill="#073148"/>
<path d="M350.283 47.9777C346.597 47.9777 343.611 51.1781 343.611 55.1301V89.0007C343.536 101.642 333.971 112.02 322.345 112.02C310.72 112.02 301.154 101.642 301.079 89.0007V55.1301C301.079 51.1781 298.094 47.9777 294.408 47.9777H287.736C284.05 47.9777 281.064 51.1781 281.064 55.1301L281.072 87.4891C281.289 110.821 298.169 130.117 319.251 131.856C319.41 131.873 319.568 131.881 319.727 131.898C319.943 131.915 320.16 131.932 320.385 131.949C321.011 131.983 321.661 132 322.345 132C323.029 132 323.68 131.983 324.305 131.949C324.522 131.941 324.739 131.915 324.964 131.898C325.122 131.89 325.289 131.873 325.439 131.856C346.53 130.125 363.401 110.821 363.618 87.4891L363.626 55.1301C363.626 51.1781 360.641 47.9777 356.955 47.9777H350.283Z" fill="#073148"/>
<path d="M392.815 36.2906H386.143C382.457 36.2906 379.472 33.2675 379.472 29.5351V24.7555C379.472 21.0231 382.457 18 386.143 18H392.815C396.501 18 399.487 21.0231 399.487 24.7555V29.5351C399.487 33.2675 396.501 36.2906 392.815 36.2906Z" fill="#073148"/>
<path d="M392.815 132H386.143C382.457 132 379.472 128.977 379.472 125.244L379.472 54.3111C379.472 50.5786 382.457 47.5555 386.143 47.5555H392.815C396.501 47.5555 399.487 50.5786 399.487 54.3111V125.244C399.487 128.977 396.501 132 392.815 132Z" fill="#073148"/>
<path d="M472.483 94.3291C472.483 94.3291 472.467 94.5656 472.458 94.6922C471.741 104.775 463.552 112.839 453.694 112.839C443.512 112.839 435.114 104.234 434.888 93.6789H434.88V66.6821H465.845C469.531 66.6821 472.517 63.5661 472.517 59.7154V54.4883C472.517 50.6377 469.531 47.5217 465.845 47.5217H434.88V29.1888C434.88 25.3382 431.895 22.2222 428.208 22.2222H422.312C418.626 22.2222 415.641 25.3382 415.641 29.1888L415.641 94.5487H415.666C416.116 115.178 432.537 132 452.443 132C469.506 132 484.009 119.645 488.095 103.137C488.129 103.002 488.195 102.723 488.195 102.723L472.483 94.3291Z" fill="#073148"/>
<path d="M539.968 47.9946C515.291 47.319 495.192 67.4083 496.268 91.8634C497.219 113.447 514.965 130.995 536.815 131.957C546.256 132.371 555.046 129.745 562.284 124.982C562.284 128.858 565.462 132 569.39 132H574.052C578.046 132 581.29 128.799 581.29 124.847V90.6474C581.29 67.8052 563.093 48.6279 539.968 47.9946ZM539.667 113.422C526.566 113.422 515.941 102.934 515.941 89.9887C515.941 77.0434 526.566 66.5554 539.667 66.5554C552.769 66.5554 563.394 77.0434 563.394 89.9887C563.394 102.934 552.769 113.422 539.667 113.422Z" fill="#073148"/>
<path d="M615.408 95.2158C615.408 95.2074 615.408 95.2158 615.408 95.2158C614.232 94.9456 613.081 94.5487 611.905 94.422C607.46 93.9576 603.757 95.2749 601.356 99.3198C599.921 101.735 599.454 104.42 599.454 107.198C599.446 114.494 599.446 123.344 599.454 130.801C599.454 131.434 599.963 131.941 600.58 131.941H600.855C601.481 131.941 601.981 131.425 601.981 130.801V111.682C601.981 111.674 601.989 111.666 601.998 111.666H608.678H614.24C614.616 111.666 614.983 111.48 615.183 111.15C615.725 110.247 615.099 109.318 614.257 109.318H601.898C601.889 109.318 601.881 109.31 601.881 109.301C601.973 107.536 601.956 105.856 602.181 104.201C602.873 99.0665 606.743 96.1025 611.813 96.778C612.622 96.8878 613.415 97.082 614.232 97.2847C614.816 97.4282 615.416 97.082 615.583 96.4909C615.641 96.2882 615.7 96.0856 615.766 95.8914C615.775 95.866 615.783 95.8407 615.783 95.8154C615.842 95.5451 615.675 95.2749 615.408 95.2158Z" fill="#073148"/>
<path d="M637.641 104.378C635.139 103.567 632.663 103.213 630.077 103.517C626.208 103.981 622.955 105.569 620.729 108.938C618.869 111.742 618.143 114.891 618.093 118.21C618.043 121.638 618.06 125.058 618.068 128.487C618.068 128.588 618.068 128.689 618.068 128.791V130.792C618.068 131.425 618.577 131.932 619.194 131.932H619.586C620.095 131.932 620.512 131.51 620.512 130.995V130.986C620.512 130.193 620.512 129.399 620.512 128.605C620.512 125.54 620.503 122.483 620.528 119.418C620.537 118.159 620.612 116.893 620.77 115.643C621.521 109.656 625.624 105.94 631.57 105.754C633.18 105.704 634.722 105.915 636.224 106.498C636.782 106.717 637.424 106.455 637.666 105.898C637.775 105.653 637.875 105.417 637.967 105.189C637.992 105.146 638.117 104.53 637.641 104.378Z" fill="#073148"/>
<path d="M590.464 132C592.306 132 593.8 130.488 593.8 128.622C593.8 126.757 592.306 125.244 590.464 125.244C588.622 125.244 587.128 126.757 587.128 128.622C587.128 130.488 588.622 132 590.464 132Z" fill="#073148"/>
</g>
</g>
<g clip-path="url(#clip2_12_53)">
<g clip-path="url(#clip3_12_53)">
<path d="M87.8238 0.416823C73.4473 7.59719 58.0642 16.0831 43.4911 23.3735C45.1742 23.3735 46.8651 23.3735 48.5481 23.3735C54.187 23.3735 58.7563 28.0844 58.7563 33.8964V41.7845C58.7563 44.1439 57.9934 46.3145 56.7194 48.0762C65.976 43.3024 72.8024 39.4723 82.7669 34.5019C95.4053 44.6001 110.568 58.0092 123.199 69.3656V116.081C123.199 119.557 120.383 122.373 116.907 122.373H57.6788V122.365C57.671 122.365 57.6631 122.365 57.6631 122.365C42.2328 122.365 29.5079 109.499 29.1697 93.7301H29.154V53.3691V24.7341V10.4127C29.1461 4.6637 24.624 0 19.0402 0H10.106C4.52214 0 0 4.6637 0 10.4127V95.0278H0.0314583C0.715677 125.857 25.5992 151 55.7599 151C56.3969 151 57.034 150.984 57.671 150.969H138.417C145.369 150.969 151 145.338 151 138.385V56.7351C129.939 38.2219 108.877 18.9301 87.8238 0.416823Z" fill="#073148"/>
</g>
</g>
<defs>
<clipPath id="clip0_12_53">
<rect width="442" height="114" fill="white" transform="translate(196 18)"/>
</clipPath>
<clipPath id="clip1_12_53">
<rect width="442" height="114" fill="white" transform="translate(196 18)"/>
</clipPath>
<clipPath id="clip2_12_53">
<rect width="151" height="151" fill="white"/>
</clipPath>
<clipPath id="clip3_12_53">
<rect width="151" height="151" fill="white"/>
</clipPath>
</defs>
</svg>
