<svg width="740" height="192" viewBox="0 0 740 192" fill="none" xmlns="http://www.w3.org/2000/svg">
<path d="M691 122.08C689.989 121.82 688.964 121.62 687.93 121.48C685.616 121.269 683.31 121.961 681.495 123.411C679.68 124.861 678.495 126.957 678.19 129.26C677.99 130.79 677.98 132.36 677.87 134H691.17C691.626 134 692.064 134.181 692.386 134.504C692.709 134.826 692.89 135.264 692.89 135.72V136.29C692.89 136.515 692.845 136.739 692.759 136.947C692.672 137.155 692.545 137.344 692.386 137.503C692.226 137.662 692.036 137.787 691.827 137.873C691.619 137.958 691.395 138.001 691.17 138H677.97V158.82C677.971 159.045 677.928 159.269 677.843 159.477C677.757 159.686 677.632 159.876 677.473 160.036C677.314 160.195 677.125 160.322 676.917 160.409C676.709 160.495 676.485 160.54 676.26 160.54H675.35C674.934 160.504 674.543 160.321 674.249 160.024C673.954 159.728 673.774 159.337 673.74 158.92C673.74 149.947 673.74 140.973 673.74 132C673.557 128.139 674.872 124.356 677.41 121.44C680.81 117.71 685.13 116.84 689.92 117.66C690.979 117.872 692.025 118.149 693.05 118.49C693.17 118.554 693.272 118.647 693.347 118.761C693.422 118.874 693.468 119.004 693.48 119.14C693.36 119.71 693.22 120.28 693.08 120.84C692.967 121.279 692.685 121.656 692.295 121.888C691.906 122.12 691.44 122.189 691 122.08Z" fill="#073148"/>
<path d="M718.44 128.71C716.603 128.111 714.682 127.811 712.75 127.82C707.1 127.82 702.36 129.69 699.04 134.45C697.016 137.487 695.97 141.071 696.04 144.72C696.04 147.09 696.04 149.45 696.04 151.81V159C696.088 159.41 696.279 159.789 696.579 160.072C696.879 160.356 697.268 160.525 697.68 160.55H698.74C699.158 160.525 699.55 160.343 699.839 160.041C700.129 159.739 700.293 159.338 700.3 158.92C700.3 156.39 700.3 151.82 700.3 151.82C700.3 149.69 700.3 147.56 700.3 145.43C700.314 143.893 700.485 142.362 700.81 140.86C701.117 139.124 701.85 137.491 702.942 136.107C704.034 134.723 705.453 133.632 707.07 132.93C709.041 132.058 711.205 131.713 713.35 131.93C714.617 132.099 715.873 132.346 717.11 132.67C717.488 132.759 717.886 132.716 718.236 132.549C718.587 132.382 718.871 132.1 719.04 131.75L719.38 131.07C719.483 130.855 719.54 130.62 719.548 130.382C719.556 130.144 719.514 129.906 719.426 129.684C719.338 129.463 719.205 129.262 719.035 129.094C718.865 128.926 718.663 128.796 718.44 128.71Z" fill="#073148"/>
<path d="M662.8 160.77C663.452 160.778 664.092 160.592 664.639 160.235C665.185 159.878 665.613 159.367 665.868 158.767C666.123 158.167 666.194 157.504 666.072 156.863C665.949 156.222 665.639 155.632 665.181 155.168C664.722 154.704 664.136 154.387 663.497 154.256C662.857 154.126 662.194 154.189 661.59 154.437C660.987 154.685 660.471 155.106 660.107 155.648C659.744 156.19 659.55 156.828 659.55 157.48C659.547 157.909 659.629 158.335 659.791 158.733C659.953 159.131 660.192 159.493 660.494 159.798C660.795 160.104 661.154 160.347 661.55 160.513C661.946 160.68 662.371 160.767 662.8 160.77Z" fill="#073148"/>
<path d="M277 118C276.7 122.165 275.269 126.169 272.86 129.58C270.919 132.392 268.331 134.695 265.313 136.297C262.295 137.898 258.936 138.75 255.52 138.78C243.86 138.78 234.24 128.92 233.99 116.84V85.89H269.44C270.467 85.8679 271.48 85.6433 272.421 85.229C273.361 84.8148 274.211 84.219 274.92 83.4758C275.63 82.7326 276.186 81.8566 276.557 80.8981C276.927 79.9396 277.105 78.9173 277.08 77.89V71.89C277.105 70.8627 276.927 69.8404 276.557 68.8819C276.186 67.9234 275.63 67.0474 274.92 66.3042C274.211 65.5611 273.361 64.9652 272.421 64.5509C271.48 64.1367 270.467 63.9121 269.44 63.89H234V43C234.025 41.9727 233.847 40.9504 233.477 39.9919C233.106 39.0334 232.55 38.1574 231.84 37.4142C231.131 36.671 230.281 36.0752 229.341 35.6609C228.4 35.2467 227.387 35.0221 226.36 35H219.61C217.54 35.0524 215.576 35.9245 214.149 37.4246C212.722 38.9248 211.949 40.9302 212 43V117.8C212.52 141.43 231.32 160.69 254.12 160.69C270.12 160.69 284.12 151.22 291.26 137.42C292.864 134.31 294.102 131.025 294.95 127.63C294.95 127.47 295.06 127.15 295.06 127.15C295.06 127.15 277 117.82 277 118Z" fill="#073148"/>
<path d="M388.62 64.47C386.525 64.5508 384.548 65.4577 383.12 66.9924C381.692 68.5272 380.93 70.5649 381 72.66V111.45C380.91 125.93 370 137.81 356.65 137.81C343.3 137.81 332.38 125.93 332.29 111.45V72.66C332.363 70.5608 331.599 68.5187 330.166 66.9828C328.733 65.4469 326.749 64.543 324.65 64.47H317C314.902 64.5456 312.919 65.4503 311.487 66.9856C310.055 68.5209 309.29 70.5616 309.36 72.66V109.72C309.61 136.44 328.94 158.53 353.08 160.52H353.63L354.38 160.58C355.1 160.58 355.84 160.64 356.63 160.64C357.42 160.64 358.15 160.64 358.87 160.58L359.63 160.52H360.17C384.32 158.52 403.64 136.44 403.89 109.72V72.66C403.96 70.5616 403.195 68.5209 401.763 66.9856C400.331 65.4503 398.348 64.5456 396.25 64.47H388.62Z" fill="#073148"/>
<path d="M437.32 160.69H429.68C427.642 160.687 425.689 159.876 424.249 158.434C422.809 156.992 422 155.038 422 153V71.73C421.995 70.7176 422.189 69.7142 422.573 68.7772C422.956 67.8402 423.521 66.9882 424.235 66.27C424.948 65.5518 425.797 64.9816 426.731 64.592C427.665 64.2025 428.668 64.0013 429.68 64H437.32C438.332 64.0013 439.335 64.2025 440.269 64.592C441.204 64.9816 442.052 65.5518 442.765 66.27C443.479 66.9882 444.044 67.8402 444.427 68.7772C444.811 69.7142 445.005 70.7176 445 71.73V153C445 155.038 444.191 156.992 442.751 158.434C441.311 159.876 439.358 160.687 437.32 160.69Z" fill="#073148"/>
<path d="M528.55 117.55C528.55 117.55 528.55 117.82 528.55 117.97C527.73 129.51 518.36 138.75 507.07 138.75C495.41 138.75 485.79 128.89 485.53 116.81V85.89H521C522.027 85.8679 523.04 85.6433 523.981 85.229C524.921 84.8148 525.771 84.219 526.48 83.4758C527.19 82.7326 527.746 81.8566 528.117 80.8981C528.487 79.9396 528.665 78.9173 528.64 77.89V71.89C528.662 69.834 527.871 67.8524 526.441 66.3753C525.011 64.8981 523.056 64.0446 521 64H485.49V43C485.515 41.9727 485.337 40.9504 484.967 39.9919C484.596 39.0334 484.04 38.1574 483.33 37.4142C482.621 36.671 481.771 36.0752 480.831 35.6609C479.89 35.2467 478.877 35.0221 477.85 35H471.1C470.073 35.0221 469.06 35.2467 468.119 35.6609C467.179 36.0752 466.329 36.671 465.62 37.4142C464.91 38.1574 464.354 39.0334 463.983 39.9919C463.613 40.9504 463.435 41.9727 463.46 43V117.8C463.98 141.43 482.78 160.69 505.57 160.69C525.11 160.69 541.72 146.54 546.4 127.69C546.4 127.53 546.51 127.21 546.51 127.21L528.55 117.55Z" fill="#073148"/>
<path d="M605.83 64.57C577.57 63.8 554.56 86.8 555.83 114.81C556.92 139.52 577.24 159.62 602.26 160.72C612.584 161.201 622.796 158.401 631.43 152.72C631.454 154.857 632.322 156.898 633.845 158.397C635.369 159.895 637.423 160.731 639.56 160.72H644.9C645.982 160.727 647.055 160.52 648.057 160.112C649.059 159.704 649.971 159.102 650.741 158.342C651.511 157.581 652.124 156.677 652.544 155.68C652.964 154.682 653.183 153.612 653.19 152.53V113.42C653.188 100.721 648.244 88.5202 639.404 79.4023C630.565 70.2845 618.523 64.9649 605.83 64.57ZM605.49 139.5C600.196 139.435 595.04 137.806 590.669 134.817C586.299 131.829 582.911 127.614 580.93 122.705C578.949 117.795 578.464 112.409 579.537 107.224C580.609 102.04 583.191 97.2884 586.958 93.5677C590.724 89.847 595.507 87.3233 600.704 86.3141C605.901 85.305 611.281 85.8554 616.166 87.8962C621.051 89.937 625.224 93.377 628.159 97.7834C631.093 102.19 632.66 107.366 632.66 112.66C632.639 116.207 631.92 119.714 630.543 122.983C629.166 126.251 627.158 129.216 624.635 131.709C622.112 134.201 619.123 136.172 615.838 137.509C612.553 138.846 609.037 139.522 605.49 139.5Z" fill="#073148"/>
<path d="M437.32 53H429.68C428.666 52.9987 427.662 52.7969 426.726 52.4061C425.791 52.0153 424.941 51.4433 424.228 50.7229C423.514 50.0026 422.949 49.1482 422.567 48.209C422.185 47.2697 421.992 46.2641 422 45.25V39.78C421.988 38.7634 422.178 37.7546 422.558 36.8118C422.939 35.8691 423.503 35.0111 424.217 34.2876C424.931 33.5641 425.782 32.9894 426.719 32.5967C427.657 32.2041 428.663 32.0013 429.68 32H437.32C438.337 32.0013 439.343 32.2041 440.281 32.5967C441.218 32.9894 442.069 33.5641 442.783 34.2876C443.497 35.0111 444.061 35.8691 444.442 36.8118C444.822 37.7546 445.012 38.7634 445 39.78V45.25C445.008 46.2641 444.815 47.2697 444.433 48.209C444.051 49.1482 443.486 50.0026 442.772 50.7229C442.059 51.4433 441.209 52.0153 440.274 52.4061C439.338 52.7969 438.334 52.9987 437.32 53Z" fill="#073148"/>
<path d="M108.32 20.63C93.89 27.84 78.45 36.36 63.82 43.68H68.9C71.6592 43.7221 74.2889 44.8581 76.2109 46.8383C78.1329 48.8184 79.1901 51.4807 79.15 54.24V62.16C79.1511 64.4272 78.4334 66.6364 77.1 68.47C86.39 63.68 93.25 59.84 103.25 54.85C115.93 64.98 131.15 78.44 143.83 89.85V136.74C143.831 137.569 143.669 138.391 143.353 139.158C143.036 139.925 142.571 140.621 141.985 141.208C141.399 141.795 140.703 142.261 139.937 142.579C139.171 142.896 138.349 143.06 137.52 143.06H78.05C62.56 143.06 49.79 130.15 49.45 114.32V30.67C49.4874 27.9346 48.4372 25.2963 46.5302 23.3349C44.6231 21.3735 42.0154 20.2495 39.28 20.21H30.28C27.5543 20.2626 24.9603 21.3926 23.0656 23.3529C21.171 25.3131 20.1298 27.944 20.17 30.67V115.6C20.86 146.6 45.83 171.79 76.11 171.79C76.75 171.79 77.39 171.79 78.03 171.79H159.08C160.739 171.791 162.382 171.466 163.915 170.831C165.448 170.197 166.841 169.267 168.014 168.094C169.187 166.921 170.117 165.528 170.751 163.995C171.386 162.462 171.711 160.819 171.71 159.16V77.16C150.6 58.58 129.46 39.22 108.32 20.63Z" fill="#073148"/>
</svg>
