<svg width="192" height="192" viewBox="0 0 192 192" fill="none" xmlns="http://www.w3.org/2000/svg">
<path d="M108.64 20.42C94.18 27.64 78.7 36.18 64 43.51H69.09C70.4631 43.5256 71.8196 43.8123 73.0817 44.3535C74.3438 44.8946 75.4866 45.6797 76.4445 46.6637C77.4024 47.6476 78.1566 48.811 78.6638 50.0871C79.171 51.3632 79.4212 52.7269 79.4 54.1V62C79.4012 64.2734 78.6837 66.4889 77.35 68.33C86.66 63.53 93.53 59.67 103.55 54.67C116.26 64.83 131.55 78.32 144.22 89.74V136.74C144.221 137.572 144.058 138.395 143.741 139.164C143.423 139.933 142.957 140.631 142.369 141.219C141.781 141.807 141.083 142.273 140.314 142.591C139.545 142.908 138.722 143.071 137.89 143.07H78.3C62.78 143.07 49.98 130.13 49.64 114.27V30.47C49.6598 29.1131 49.4118 27.7655 48.9102 26.5046C48.4086 25.2436 47.6632 24.0939 46.7167 23.1214C45.7702 22.1489 44.6411 21.3726 43.3942 20.837C42.1473 20.3014 40.807 20.017 39.45 20H30.45C27.7164 20.0447 25.1122 21.1724 23.2092 23.1354C21.3062 25.0984 20.2599 27.7363 20.3 30.47V115.59C20.99 146.59 46.02 171.89 76.36 171.89H78.28H159.5C162.858 171.89 166.078 170.556 168.452 168.182C170.826 165.808 172.16 162.588 172.16 159.23V77.07C151 58.45 129.82 39 108.64 20.42Z" fill="#F7F8FC"/>
</svg>
