<svg width="192" height="192" viewBox="0 0 192 192" fill="none" xmlns="http://www.w3.org/2000/svg">
<path d="M104.99 41.3042C94.5155 46.533 83.3026 52.7177 72.6547 58.0261H76.3416C77.3363 58.0375 78.3189 58.245 79.233 58.637C80.1472 59.0289 80.975 59.5975 81.6688 60.31C82.3627 61.0226 82.909 61.8652 83.2764 62.7893C83.6438 63.7135 83.825 64.7011 83.8097 65.6955V71.4167C83.8105 73.0631 83.2908 74.6677 82.3247 76.001C89.0684 72.5248 94.0447 69.7293 101.303 66.1083C110.509 73.4663 121.584 83.2358 130.762 91.5063V125.544C130.763 126.146 130.645 126.743 130.415 127.3C130.185 127.856 129.847 128.362 129.421 128.788C128.995 129.214 128.489 129.551 127.932 129.781C127.376 130.011 126.779 130.129 126.177 130.128H83.0129C71.771 130.128 62.4994 120.757 62.2531 109.271V48.5825C62.2675 47.5998 62.0878 46.6239 61.7245 45.7107C61.3611 44.7974 60.8212 43.9649 60.1356 43.2606C59.45 42.5562 58.6322 41.9941 57.729 41.6062C56.8258 41.2183 55.855 41.0123 54.872 41H48.3529C46.3728 41.0324 44.4865 41.8491 43.1081 43.2707C41.7296 44.6923 40.9718 46.6027 41.0008 48.5825V110.227C41.5006 132.678 59.631 151 81.6076 151H82.9984H141.83C144.262 151 146.594 150.034 148.314 148.315C150.034 146.595 151 144.263 151 141.832V82.3306C135.673 68.8458 120.331 54.76 104.99 41.3042Z" fill="#073148"/>
</svg>
