<svg width="124" height="124" viewBox="0 0 124 124" fill="none" xmlns="http://www.w3.org/2000/svg">
<rect width="124" height="124" rx="24" fill="#073148"/>
<path d="M67.3835 29.2447C61.111 32.376 54.396 36.0798 48.0194 39.2588H50.2273C50.823 39.2656 51.4114 39.3899 51.9589 39.6246C52.5063 39.8594 53.0021 40.1999 53.4176 40.6266C53.8331 41.0533 54.1603 41.5579 54.3803 42.1113C54.6003 42.6648 54.7088 43.2562 54.6996 43.8517V47.278C54.7002 48.264 54.3889 49.2248 53.8104 50.0233C57.8489 47.9415 60.829 46.2675 65.1755 44.0989C70.6889 48.5054 77.3215 54.356 82.8176 59.3089V79.6929C82.8181 80.0536 82.7475 80.4108 82.6097 80.7441C82.4719 81.0775 82.2697 81.3803 82.0146 81.6354C81.7595 81.8904 81.4566 82.0926 81.1232 82.2304C80.7898 82.3682 80.4325 82.4388 80.0717 82.4382H54.2225C47.4901 82.4382 41.9377 76.8261 41.7902 69.9476V33.6034C41.7988 33.0149 41.6912 32.4304 41.4736 31.8835C41.2561 31.3367 40.9327 30.838 40.5221 30.4163C40.1115 29.9945 39.6218 29.6578 39.0809 29.4255C38.54 29.1932 37.9586 29.0699 37.37 29.0625H33.4659C32.2801 29.0819 31.1504 29.571 30.3249 30.4223C29.4995 31.2737 29.0456 32.4177 29.063 33.6034V70.5201C29.3623 83.9648 40.2199 94.9375 53.3809 94.9375H54.2138H89.4458C90.9023 94.9375 92.2991 94.359 93.329 93.3293C94.3589 92.2996 94.9375 90.903 94.9375 89.4468V53.8139C85.7586 45.7383 76.5711 37.3028 67.3835 29.2447Z" fill="white"/>
</svg>
