<svg width="634" height="152" viewBox="0 0 634 152" fill="none" xmlns="http://www.w3.org/2000/svg">
<path d="M256.831 97.79C256.531 101.955 255.1 105.959 252.691 109.37C250.75 112.182 248.162 114.485 245.144 116.087C242.126 117.688 238.767 118.54 235.351 118.57C223.691 118.57 214.071 108.71 213.821 96.63V65.68H249.271C250.298 65.6579 251.311 65.4333 252.252 65.0191C253.192 64.6048 254.042 64.009 254.751 63.2658C255.461 62.5226 256.017 61.6466 256.388 60.6881C256.758 59.7296 256.936 58.7074 256.911 57.68V51.68C256.936 50.6527 256.758 49.6304 256.388 48.6719C256.017 47.7134 255.461 46.8374 254.751 46.0943C254.042 45.3511 253.192 44.7552 252.252 44.341C251.311 43.9267 250.298 43.7021 249.271 43.68H213.831V22.79C213.856 21.7627 213.678 20.7404 213.308 19.7819C212.937 18.8234 212.381 17.9474 211.671 17.2043C210.962 16.4611 210.112 15.8652 209.172 15.451C208.231 15.0367 207.218 14.8121 206.191 14.79H199.441C197.371 14.8424 195.407 15.7145 193.98 17.2147C192.553 18.7148 191.78 20.7202 191.831 22.79V97.59C192.351 121.22 211.151 140.48 233.951 140.48C249.951 140.48 263.951 131.01 271.091 117.21C272.695 114.1 273.933 110.815 274.781 107.42C274.781 107.26 274.891 106.94 274.891 106.94C274.891 106.94 256.831 97.61 256.831 97.79Z" fill="#073148"/>
<path d="M368.451 44.26C366.356 44.3408 364.379 45.2477 362.951 46.7824C361.523 48.3172 360.761 50.3549 360.831 52.45V91.24C360.741 105.72 349.831 117.6 336.481 117.6C323.131 117.6 312.211 105.72 312.121 91.24V52.45C312.194 50.3508 311.43 48.3087 309.997 46.7728C308.564 45.2369 306.58 44.333 304.481 44.26H296.831C294.733 44.3356 292.75 45.2403 291.318 46.7756C289.886 48.3109 289.121 50.3516 289.191 52.45V89.51C289.441 116.23 308.771 138.32 332.911 140.31H333.461L334.211 140.37C334.931 140.37 335.671 140.43 336.461 140.43C337.251 140.43 337.981 140.43 338.701 140.37L339.461 140.31H340.001C364.151 138.31 383.471 116.23 383.721 89.51V52.45C383.791 50.3516 383.026 48.3109 381.594 46.7756C380.162 45.2403 378.179 44.3356 376.081 44.26H368.451Z" fill="#073148"/>
<path d="M417.151 140.48H409.511C407.473 140.477 405.52 139.666 404.08 138.224C402.64 136.782 401.831 134.828 401.831 132.79V51.52C401.826 50.5076 402.02 49.5042 402.404 48.5672C402.787 47.6302 403.352 46.7782 404.066 46.06C404.779 45.3418 405.627 44.7716 406.562 44.3821C407.496 43.9925 408.499 43.7913 409.511 43.79H417.151C418.163 43.7913 419.166 43.9925 420.1 44.3821C421.034 44.7716 421.883 45.3418 422.596 46.06C423.31 46.7782 423.875 47.6302 424.258 48.5672C424.641 49.5042 424.836 50.5076 424.831 51.52V132.79C424.831 134.828 424.022 136.782 422.582 138.224C421.142 139.666 419.189 140.477 417.151 140.48V140.48Z" fill="#073148"/>
<path d="M508.381 97.34C508.381 97.34 508.381 97.61 508.381 97.76C507.561 109.3 498.191 118.54 486.901 118.54C475.241 118.54 465.621 108.68 465.361 96.6V65.68H500.831C501.858 65.6579 502.871 65.4333 503.812 65.0191C504.752 64.6048 505.602 64.009 506.311 63.2658C507.021 62.5226 507.577 61.6466 507.948 60.6881C508.318 59.7296 508.496 58.7074 508.471 57.68V51.68C508.493 49.624 507.702 47.6424 506.272 46.1653C504.842 44.6881 502.887 43.8347 500.831 43.79H465.321V22.79C465.346 21.7627 465.168 20.7404 464.798 19.7819C464.427 18.8234 463.871 17.9474 463.161 17.2043C462.452 16.4611 461.602 15.8652 460.662 15.451C459.721 15.0367 458.708 14.8121 457.681 14.79H450.931C449.904 14.8121 448.891 15.0367 447.95 15.451C447.01 15.8652 446.16 16.4611 445.45 17.2043C444.741 17.9474 444.185 18.8234 443.814 19.7819C443.443 20.7404 443.266 21.7627 443.291 22.79V97.59C443.811 121.22 462.611 140.48 485.401 140.48C504.941 140.48 521.551 126.33 526.231 107.48C526.231 107.32 526.341 107 526.341 107L508.381 97.34Z" fill="#073148"/>
<path d="M585.661 44.36C557.401 43.59 534.391 66.59 535.661 94.6C536.751 119.31 557.071 139.41 582.091 140.51C592.415 140.991 602.627 138.191 611.261 132.51C611.285 134.647 612.153 136.688 613.676 138.187C615.2 139.685 617.254 140.521 619.391 140.51H624.731C625.813 140.517 626.886 140.31 627.888 139.902C628.89 139.494 629.802 138.892 630.572 138.132C631.342 137.371 631.955 136.467 632.375 135.47C632.795 134.472 633.014 133.402 633.021 132.32V93.21C633.019 80.5105 628.075 68.3102 619.235 59.1923C610.396 50.0745 598.354 44.7549 585.661 44.36V44.36ZM585.321 119.29C580.027 119.225 574.871 117.596 570.5 114.607C566.13 111.619 562.742 107.404 560.761 102.495C558.78 97.5849 558.295 92.1989 559.368 87.0144C560.44 81.8299 563.022 77.0784 566.789 73.3577C570.555 69.637 575.338 67.1133 580.535 66.1041C585.732 65.095 591.112 65.6454 595.997 67.6862C600.882 69.727 605.055 73.167 607.99 77.5734C610.924 81.9797 612.491 87.1557 612.491 92.45C612.47 95.9966 611.751 99.5042 610.374 102.773C608.997 106.041 606.989 109.006 604.466 111.499C601.943 113.991 598.954 115.962 595.669 117.299C592.384 118.636 588.868 119.312 585.321 119.29V119.29Z" fill="#073148"/>
<path d="M417.151 32.79H409.511C408.497 32.7887 407.493 32.5869 406.557 32.1961C405.622 31.8053 404.772 31.2333 404.059 30.5129C403.345 29.7926 402.78 28.9382 402.398 27.999C402.016 27.0597 401.823 26.0541 401.831 25.04V19.57C401.819 18.5534 402.009 17.5446 402.389 16.6018C402.77 15.6591 403.334 14.8011 404.048 14.0776C404.762 13.3541 405.613 12.7794 406.55 12.3868C407.488 11.9941 408.494 11.7913 409.511 11.79H417.151C418.168 11.7913 419.174 11.9941 420.112 12.3868C421.05 12.7794 421.9 13.3541 422.614 14.0776C423.329 14.8011 423.892 15.6591 424.273 16.6018C424.653 17.5446 424.843 18.5534 424.831 19.57V25.04C424.839 26.0541 424.646 27.0597 424.264 27.999C423.882 28.9382 423.317 29.7926 422.604 30.5129C421.89 31.2333 421.041 31.8053 420.105 32.1961C419.169 32.5869 418.165 32.7887 417.151 32.79V32.79Z" fill="#073148"/>
<path d="M88.1511 0.42C73.7211 7.63 58.2811 16.15 43.6511 23.47H48.7311C51.4904 23.5121 54.12 24.6481 56.042 26.6283C57.9641 28.6084 59.0212 31.2707 58.9811 34.03V41.95C58.9822 44.2172 58.2645 46.4264 56.9311 48.26C66.2211 43.47 73.0811 39.63 83.0811 34.64C95.7611 44.77 110.981 58.23 123.661 69.64V116.53C123.662 117.359 123.5 118.181 123.184 118.948C122.867 119.715 122.403 120.411 121.817 120.998C121.23 121.585 120.534 122.051 119.768 122.369C119.002 122.686 118.181 122.85 117.351 122.85H57.8811C42.3911 122.85 29.6211 109.94 29.2811 94.11V10.46C29.3185 7.7246 28.2683 5.08627 26.3613 3.12487C24.4543 1.16348 21.8465 0.0395068 19.1111 0H10.1111C7.38538 0.0525895 4.79143 1.18263 2.89676 3.14289C1.00209 5.10316 -0.0390506 7.73405 0.00112076 10.46V95.39C0.691121 126.39 25.6611 151.58 55.9411 151.58C56.5811 151.58 57.2211 151.58 57.8611 151.58H138.911C140.57 151.581 142.213 151.256 143.746 150.621C145.279 149.987 146.672 149.057 147.845 147.884C149.018 146.711 149.948 145.318 150.582 143.785C151.217 142.252 151.542 140.609 151.541 138.95V56.95C130.431 38.37 109.291 19.01 88.1511 0.42Z" fill="#073148"/>
</svg>
